<?xml version="1.0" encoding="UTF-8" standalone="no"?><svg xmlns="http://www.w3.org/2000/svg" height="60.5" width="64"><path data-original="#000000" d="M3.396 17.997H14.25a3.401 3.401 0 013.397 3.398v12.492h4.06c-.226-.82-.31-1.788-.255-2.913.088-4.758.952-8.767 2.566-11.918 1.254-2.445 2.717-3.912 3.973-4.788-1.474-1.516-2.326-3.67-2.326-6.157C25.664 3.64 29.232 0 33.617 0c4.386 0 7.954 3.639 7.954 8.111a.938.938 0 01-.938.938h-.637a6.51 6.51 0 01-5.14 7.457c.312 1.159.467 2.526.467 4.078l2.338 2.011 5.69.46 6.562-2.17c.602-.2 1.283-.425 1.875.001.583.42.583 1.157.583 1.4v4.879a.938.938 0 01-.938.937h-1.116l1.712 5.916a.938.938 0 01-.64 1.16.937.937 0 01-1.161-.64l-1.863-6.436H45.7c3.315 10.109 1.423 16.857-1.484 23.686H45.9l7.02-7.849-1.485-5.127a.937.937 0 111.801-.521l1.42 4.904c4.39-.073 8.318 2.954 9.319 7.31a.938.938 0 01-.704 1.123l-1.33.306c.34 3.532-1.986 6.864-5.533 7.68a7.216 7.216 0 01-1.621.185 7.122 7.122 0 01-3.794-1.097 7.125 7.125 0 01-2.915-3.578l-1.05.242c-.313.072-.61.109-.906-.05a1.076 1.076 0 01-.528-.72 9.326 9.326 0 01-.151-.933H25.836c-.627 3.898-3.944 6.837-7.905 6.837-3.961 0-7.278-2.939-7.905-6.837H9.31l-.174.002c-.268 0-.656-.03-.974-.354-.159-.161-.345-.451-.331-.911a10.627 10.627 0 01.384-2.54c-.747-4.533-.028-7.294 1.037-9.455a2.468 2.468 0 01-1.12-2.066v-2.577H3.397A3.401 3.401 0 010 32.364V21.396a3.4 3.4 0 013.396-3.399zM51.99 57.113c1.2.752 2.62.992 3.998.674a5.312 5.312 0 004.107-5.426l-10.17 2.34a5.27 5.27 0 002.065 2.412zm-4.691-3.733l14.583-3.356c-1.126-3.081-4.154-5.121-7.465-4.946l-7.143 7.988c.006.105.014.21.025.314zM33.138 37.043c.272.718.272 1.603.272 2.828v3.537h3.433v-4.853c0-5.487-2.995-6.465-4.339-6.627h-9.19c.036 1.246.317 2.131.85 2.693.622.655 1.686.974 3.253.975l3.365.004c1.2 0 1.993.486 2.356 1.444zm.272 8.24v2.239h6.686c-.075-.694-.292-1.232-.647-1.603-.528-.553-1.272-.636-1.668-.636zm-10.055-15.23h8.525c.343-1.077.648-2.256.899-3.469l-2.592-1.683c-1.415-.918-2.151-2.217-2.02-3.562.117-1.192.927-2.257 2.065-2.713 1.04-.417 2.158-.286 3.147.346-.082-.896-.233-1.697-.453-2.376a6.608 6.608 0 01-1.186-.234 7.767 7.767 0 01-2.188-.868c-1.806 1.08-5.777 4.578-6.197 14.56zm16.272-22.88c-.442-2.995-2.969-5.298-6.01-5.298-3.351 0-6.078 2.798-6.078 6.236 0 2.797 1.341 5.051 3.504 6.043V9.221c0-.854.326-1.902 1.883-2.043a.919.919 0 01.085-.004zM38.21 10.13c0-.37-.042-.731-.125-1.08h-5.029c-.058.006-.1.013-.13.019a1.115 1.115 0 00-.01.153v5.485c.224.033.449.05.674.05h.006a4.627 4.627 0 004.614-4.627zm1.215 14.49l-2.22-.18a.938.938 0 01-.537-.223l-4.007-3.447c-.388-.334-.802-.505-1.204-.505-.18 0-.357.034-.528.102-.496.199-.847.652-.897 1.155-.062.634.356 1.276 1.175 1.808l4.465 2.898h3.753V24.62zm3.962.32l-2.087-.168v1.456h2.425c.315 0 .391-.26.4-.48.005-.124-.007-.747-.738-.807zm2.219-.646c.282.463.414 1.004.393 1.53a2.72 2.72 0 01-.048.397l.001.008h4.542v-3.56l-4.892 1.617.003.007zm-1.886 3.81h-8.325a.937.937 0 01-.51-.152l-.425-.275a36.714 36.714 0 01-.69 2.61c1.912.563 4.947 2.387 4.947 8.269v4.947c.658.133 1.436.44 2.087 1.121.686.718 1.078 1.691 1.172 2.899h1.891c1.906-5.492 2.63-11.337-.147-19.42zm-1.545 23.681c.346-.796.68-1.59.995-2.387h-9.734c-1.262 0-1.902-.574-1.902-1.707v-6.882h-7.4a.937.937 0 110-1.875h7.393c-.011-.532-.046-.968-.143-1.225-.048-.125-.089-.233-.604-.233l-3.365-.004c-2.109-.002-3.617-.512-4.611-1.56a3.164 3.164 0 01-.133-.15H10.007v2.577c0 .322.271.595.593.595h9.333a.937.937 0 110 1.875H11.15c-.741 1.375-1.408 3.086-1.368 5.79a10.138 10.138 0 018.265-4.233c2.737 0 5.305 1.074 7.231 3.023a10.328 10.328 0 012.947 6.4zm-24.245 6.84c2.93 0 5.402-2.11 6-4.961h-12c.598 2.85 3.07 4.962 6 4.962zm-7.066-6.836h15.478c-.46-4.24-4.005-7.547-8.295-7.547-3.767 0-6.93 2.484-7.978 5.96l-.01.034a8.653 8.653 0 00-.31 1.553zm-8.99-19.424c0 .84.682 1.523 1.521 1.523H15.77v-4.841H1.875zm0-5.193H15.77v-1.994H1.875zm0-3.87H15.77v-1.906c0-.84-.682-1.523-1.521-1.523H3.396c-.839 0-1.521.683-1.521 1.523z" fill="#fff"/></svg>